<?xml version="1.0" encoding="UTF-8" standalone="no"?>
<svg
   xmlns:dc="http://purl.org/dc/elements/1.1/"
   xmlns:cc="http://creativecommons.org/ns#"
   xmlns:rdf="http://www.w3.org/1999/02/22-rdf-syntax-ns#"
   xmlns:svg="http://www.w3.org/2000/svg"
   xmlns="http://www.w3.org/2000/svg"
   xmlns:sodipodi="http://sodipodi.sourceforge.net/DTD/sodipodi-0.dtd"
   xmlns:inkscape="http://www.inkscape.org/namespaces/inkscape"
   version="1.1"
   id="Layer_1"
   x="0px"
   y="0px"
   viewBox="0 0 650.21997 168.46"
   xml:space="preserve"
   sodipodi:docname="Logo_BayviewGlen_IndependentSchool_white-colour_rgb.svg"
   width="650.21997"
   height="168.46001"
   inkscape:version="1.0.2-2 (e86c870879, 2021-01-15)"><metadata
   id="metadata81"><rdf:RDF><cc:Work
       rdf:about=""><dc:format>image/svg+xml</dc:format><dc:type
         rdf:resource="http://purl.org/dc/dcmitype/StillImage" /><dc:title></dc:title></cc:Work></rdf:RDF></metadata><defs
   id="defs79" /><sodipodi:namedview
   pagecolor="#ffffff"
   bordercolor="#666666"
   borderopacity="1"
   objecttolerance="10"
   gridtolerance="10"
   guidetolerance="10"
   inkscape:pageopacity="0"
   inkscape:pageshadow="2"
   inkscape:window-width="1920"
   inkscape:window-height="1017"
   id="namedview77"
   showgrid="false"
   inkscape:zoom="1.3156566"
   inkscape:cx="317.24"
   inkscape:cy="208.96228"
   inkscape:window-x="-8"
   inkscape:window-y="-8"
   inkscape:window-maximized="1"
   inkscape:current-layer="Layer_1" />
<style
   type="text/css"
   id="style2">
	.st0{fill:#7BC89C;}
	.st1{fill:#C9D1CE;}
	.st2{fill:#A7D060;}
	.st3{fill:#FFFFFF;}
</style>
<g
   id="g32"
   transform="translate(-78.76,-218.65)">
	<rect
   x="79.199997"
   y="353.95999"
   class="st0"
   width="5.48"
   height="32.5"
   id="rect4" />
	<polygon
   class="st0"
   points="98.78,386.46 98.78,353.97 104.31,353.97 118.84,375.97 118.84,353.97 124.31,353.97 124.31,386.46 119.81,386.46 104.26,363.11 104.26,386.46 "
   id="polygon6" />
	<g
   id="g10">
		<path
   class="st0"
   d="m 150.54,359.17 h -6.63 v 22.09 h 6.63 c 3.28,0 5.78,-0.97 7.5,-2.93 1.71,-1.96 2.58,-4.67 2.58,-8.12 0,-3.45 -0.86,-6.15 -2.58,-8.11 -1.72,-1.95 -4.22,-2.93 -7.5,-2.93 m 0,27.29 h -12.11 v -32.49 h 12.11 c 2.38,0 4.56,0.38 6.52,1.13 1.96,0.76 3.66,1.85 5.08,3.25 1.43,1.41 2.53,3.12 3.3,5.11 0.77,2 1.16,4.25 1.16,6.75 0,2.51 -0.39,4.76 -1.16,6.76 -0.77,1.99 -1.87,3.7 -3.3,5.1 -1.42,1.41 -3.12,2.49 -5.08,3.25 -1.97,0.76 -4.14,1.14 -6.52,1.14"
   id="path8" />
	</g>
	<polygon
   class="st0"
   points="199.32,359.17 184.42,359.17 184.42,366.92 196.07,366.92 196.07,372.12 184.42,372.12 184.42,381.26 199.78,381.26 199.78,386.46 178.85,386.46 178.85,353.97 199.32,353.97 "
   id="polygon12" />
	<g
   id="g16">
		<path
   class="st0"
   d="m 222.38,358.61 h -4.92 v 11.89 h 5.38 c 2.23,0 3.82,-0.47 4.76,-1.42 0.94,-0.94 1.41,-2.53 1.41,-4.75 0,-1.02 -0.11,-1.9 -0.33,-2.62 -0.22,-0.73 -0.58,-1.32 -1.09,-1.79 -0.51,-0.46 -1.19,-0.79 -2.04,-0.99 -0.84,-0.22 -1.89,-0.32 -3.17,-0.32 m 1.29,16.94 h -6.2 v 10.91 h -5.57 v -32.48 h 9.56 c 2.07,0 3.92,0.12 5.54,0.36 1.62,0.25 3,0.75 4.13,1.49 1.13,0.74 1.99,1.79 2.57,3.13 0.59,1.35 0.88,3.11 0.88,5.27 0,2.2 -0.34,4.01 -1.02,5.45 -0.68,1.44 -1.55,2.6 -2.61,3.48 -1.06,0.89 -2.25,1.5 -3.54,1.87 -1.29,0.35 -2.54,0.52 -3.74,0.52"
   id="path14" />
	</g>
	<polygon
   class="st0"
   points="266.57,359.17 251.68,359.17 251.68,366.92 263.32,366.92 263.32,372.12 251.68,372.12 251.68,381.26 267.04,381.26 267.04,386.46 246.1,386.46 246.1,353.97 266.57,353.97 "
   id="polygon18" />
	<polygon
   class="st0"
   points="279.15,386.46 279.15,353.97 284.67,353.97 299.2,375.97 299.2,353.97 304.68,353.97 304.68,386.46 300.18,386.46 284.63,363.11 284.63,386.46 "
   id="polygon20" />
	<g
   id="g24">
		<path
   class="st0"
   d="m 330.9,359.17 h -6.64 v 22.09 h 6.64 c 3.28,0 5.78,-0.97 7.5,-2.93 1.71,-1.96 2.58,-4.67 2.58,-8.12 0,-3.45 -0.86,-6.15 -2.58,-8.11 -1.72,-1.95 -4.22,-2.93 -7.5,-2.93 m 0,27.29 h -12.12 v -32.49 h 12.12 c 2.38,0 4.55,0.38 6.52,1.13 1.96,0.76 3.66,1.85 5.08,3.25 1.42,1.41 2.52,3.12 3.3,5.11 0.77,2 1.16,4.25 1.16,6.75 0,2.51 -0.39,4.76 -1.16,6.76 -0.77,1.99 -1.87,3.7 -3.3,5.1 -1.42,1.41 -3.12,2.49 -5.08,3.25 -1.96,0.76 -4.14,1.14 -6.52,1.14"
   id="path22" />
	</g>
	<polygon
   class="st0"
   points="379.68,359.17 364.79,359.17 364.79,366.92 376.43,366.92 376.43,372.12 364.79,372.12 364.79,381.26 380.14,381.26 380.14,386.46 359.22,386.46 359.22,353.97 379.68,353.97 "
   id="polygon26" />
	<polygon
   class="st0"
   points="392.26,386.46 392.26,353.97 397.78,353.97 412.31,375.97 412.31,353.97 417.79,353.97 417.79,386.46 413.29,386.46 397.74,363.11 397.74,386.46 "
   id="polygon28" />
	<polygon
   class="st0"
   points="438.4,359.17 429.12,359.17 429.12,353.97 453.16,353.97 453.16,359.17 443.88,359.17 443.88,386.46 438.4,386.46 "
   id="polygon30" />
</g>
<path
   class="st1"
   d="m 408.09,160.57 c 0,1.26 -0.4,2.3 -1.21,3.12 -0.81,0.81 -1.85,1.21 -3.11,1.21 -1.26,0 -2.3,-0.4 -3.11,-1.21 -0.8,-0.82 -1.21,-1.86 -1.21,-3.12 0,-1.25 0.41,-2.28 1.25,-3.1 0.83,-0.82 1.85,-1.23 3.07,-1.23 1.21,0 2.23,0.43 3.07,1.28 0.83,0.85 1.25,1.87 1.25,3.05 m 0,-19.33 c 0,1.18 -0.42,2.19 -1.28,3.04 -0.85,0.86 -1.87,1.28 -3.04,1.28 -1.22,0 -2.23,-0.42 -3.07,-1.25 -0.84,-0.83 -1.25,-1.86 -1.25,-3.07 0,-1.25 0.41,-2.28 1.22,-3.1 0.81,-0.82 1.84,-1.22 3.09,-1.22 1.21,0 2.23,0.41 3.07,1.25 0.84,0.83 1.26,1.86 1.26,3.07"
   id="path34" />
<g
   id="g48"
   transform="translate(-78.76,-218.65)">
	<path
   class="st2"
   d="m 521.9,387.11 c -2.32,0 -4.42,-0.22 -6.31,-0.65 -1.89,-0.43 -3.36,-0.98 -4.41,-1.62 l 0.7,-6.27 c 1.04,0.94 2.45,1.74 4.2,2.38 1.75,0.64 3.73,0.96 5.96,0.96 4.28,0 6.4,-1.32 6.4,-3.97 0,-0.99 -0.3,-1.83 -0.9,-2.52 -0.6,-0.69 -1.32,-1.27 -2.16,-1.72 -0.84,-0.46 -1.69,-0.83 -2.58,-1.09 -0.88,-0.26 -1.6,-0.48 -2.16,-0.67 -1.2,-0.37 -2.41,-0.78 -3.59,-1.21 -1.2,-0.43 -2.26,-0.98 -3.21,-1.63 -0.94,-0.65 -1.7,-1.46 -2.27,-2.43 -0.57,-0.98 -0.86,-2.2 -0.86,-3.7 0,-1.08 0.2,-2.2 0.61,-3.34 0.4,-1.15 1.05,-2.18 1.97,-3.12 0.91,-0.92 2.12,-1.69 3.62,-2.29 1.49,-0.61 3.35,-0.91 5.55,-0.91 0.99,0 1.99,0.07 3.02,0.21 1.02,0.14 2,0.32 2.92,0.55 0.93,0.23 1.77,0.49 2.53,0.79 0.76,0.3 1.37,0.58 1.83,0.86 l -0.55,5.66 c -3.68,-1.92 -6.84,-2.88 -9.46,-2.88 -0.81,0 -1.59,0.07 -2.34,0.21 -0.76,0.14 -1.43,0.36 -2.02,0.67 -0.59,0.31 -1.07,0.71 -1.44,1.2 -0.37,0.5 -0.55,1.08 -0.55,1.75 0,0.96 0.3,1.71 0.91,2.26 0.6,0.55 1.43,1.04 2.5,1.45 1.07,0.42 2.33,0.84 3.78,1.28 1.45,0.43 3.04,1.02 4.73,1.76 0.66,0.25 1.35,0.6 2.07,1.05 0.73,0.45 1.4,1 2.02,1.67 0.62,0.67 1.13,1.45 1.54,2.34 0.4,0.9 0.6,1.94 0.6,3.11 0,0.93 -0.12,1.97 -0.34,3.11 -0.24,1.14 -0.78,2.22 -1.62,3.23 -0.86,1 -2.12,1.84 -3.79,2.51 -1.7,0.68 -3.99,1.01 -6.9,1.01"
   id="path36" />
	<path
   class="st2"
   d="m 560.65,387.11 c -2.35,0 -4.51,-0.4 -6.48,-1.21 -1.97,-0.8 -3.66,-1.95 -5.08,-3.43 -1.42,-1.48 -2.54,-3.26 -3.34,-5.34 -0.81,-2.07 -1.21,-4.38 -1.21,-6.92 0,-2.53 0.4,-4.84 1.21,-6.91 0.8,-2.07 1.92,-3.85 3.34,-5.34 1.42,-1.48 3.12,-2.63 5.08,-3.43 1.97,-0.81 4.12,-1.21 6.48,-1.21 3.4,0 6.45,0.61 9.15,1.86 l -0.61,5.2 c -3.46,-1.24 -6.31,-1.86 -8.54,-1.86 -1.64,0 -3.09,0.29 -4.34,0.86 -1.25,0.57 -2.31,1.37 -3.18,2.4 -0.87,1.03 -1.52,2.26 -1.96,3.7 -0.43,1.44 -0.65,3.02 -0.65,4.74 0,1.72 0.22,3.31 0.65,4.74 0.43,1.44 1.09,2.66 1.96,3.7 0.87,1.03 1.93,1.83 3.18,2.4 1.25,0.58 2.69,0.86 4.34,0.86 2.35,0 5.2,-0.62 8.54,-1.86 l 0.61,5.2 c -2.63,1.23 -5.68,1.85 -9.15,1.85"
   id="path38" />
	<polygon
   class="st2"
   points="587.25,386.46 581.78,386.46 581.78,353.97 587.25,353.97 587.25,366.87 603.5,366.87 603.5,353.97 608.97,353.97 608.97,386.46 603.5,386.46 603.5,372.07 587.25,372.07 "
   id="polygon40" />
	<path
   class="st2"
   d="m 644.62,361.75 c -1.7,-2.16 -4.18,-3.24 -7.43,-3.24 -1.64,0 -3.08,0.29 -4.32,0.86 -1.24,0.57 -2.28,1.38 -3.14,2.43 -0.85,1.04 -1.49,2.29 -1.92,3.72 -0.43,1.43 -0.66,3 -0.66,4.69 0,1.72 0.22,3.3 0.66,4.72 0.44,1.42 1.07,2.65 1.92,3.7 0.85,1.05 1.9,1.85 3.14,2.43 1.24,0.57 2.67,0.85 4.32,0.85 1.61,0 3.04,-0.28 4.29,-0.85 1.25,-0.58 2.31,-1.38 3.16,-2.43 0.85,-1.05 1.5,-2.28 1.93,-3.7 0.43,-1.42 0.65,-3 0.65,-4.72 0,-3.45 -0.87,-6.26 -2.6,-8.46 m 4.08,20.71 c -2.97,3.1 -6.81,4.64 -11.51,4.64 -2.32,0 -4.47,-0.4 -6.43,-1.21 -1.97,-0.81 -3.66,-1.95 -5.08,-3.44 -1.43,-1.48 -2.53,-3.26 -3.32,-5.34 -0.79,-2.07 -1.18,-4.38 -1.18,-6.92 0,-2.53 0.39,-4.84 1.18,-6.91 0.79,-2.08 1.9,-3.85 3.32,-5.35 1.42,-1.48 3.11,-2.62 5.08,-3.43 1.96,-0.81 4.1,-1.21 6.43,-1.21 2.35,0 4.5,0.41 6.45,1.23 1.95,0.82 3.64,1.97 5.06,3.46 1.42,1.48 2.53,3.26 3.32,5.33 0.79,2.07 1.18,4.37 1.18,6.87 0.01,5.11 -1.5,9.19 -4.5,12.28"
   id="path42" />
	<path
   class="st2"
   d="m 686.95,361.75 c -1.71,-2.16 -4.18,-3.24 -7.42,-3.24 -1.64,0 -3.08,0.29 -4.32,0.86 -1.24,0.57 -2.28,1.38 -3.14,2.43 -0.85,1.04 -1.49,2.29 -1.93,3.72 -0.43,1.43 -0.65,3 -0.65,4.69 0,1.72 0.22,3.3 0.65,4.72 0.43,1.42 1.07,2.65 1.93,3.7 0.85,1.05 1.9,1.85 3.14,2.43 1.24,0.57 2.67,0.85 4.32,0.85 1.6,0 3.04,-0.28 4.29,-0.85 1.26,-0.58 2.31,-1.38 3.16,-2.43 0.85,-1.05 1.5,-2.28 1.93,-3.7 0.43,-1.42 0.65,-3 0.65,-4.72 -0.02,-3.45 -0.88,-6.26 -2.61,-8.46 m 4.08,20.71 c -2.97,3.1 -6.81,4.64 -11.51,4.64 -2.33,0 -4.47,-0.4 -6.43,-1.21 -1.97,-0.81 -3.66,-1.95 -5.08,-3.44 -1.43,-1.48 -2.53,-3.26 -3.32,-5.34 -0.79,-2.07 -1.18,-4.38 -1.18,-6.92 0,-2.53 0.39,-4.84 1.18,-6.91 0.79,-2.08 1.89,-3.85 3.32,-5.35 1.42,-1.48 3.12,-2.62 5.08,-3.43 1.96,-0.81 4.1,-1.21 6.43,-1.21 2.34,0 4.5,0.41 6.45,1.23 1.95,0.82 3.63,1.97 5.06,3.46 1.43,1.48 2.53,3.26 3.32,5.33 0.79,2.07 1.18,4.37 1.18,6.87 0,5.11 -1.5,9.19 -4.5,12.28"
   id="path44" />
	<polygon
   class="st2"
   points="713.21,381.26 727.05,381.26 727.05,386.46 707.74,386.46 707.74,353.97 713.21,353.97 "
   id="polygon46" />
</g>
<g
   id="g74"
   transform="translate(-78.76,-218.65)">
	<path
   class="st3"
   d="m 133.44,280.98 c 0,-10.67 -6.22,-16.02 -18.65,-16.02 h -9.43 v 26.13 c 0,2.62 0.46,4.25 1.36,4.86 0.91,0.62 4.4,0.93 10.48,0.93 2.97,0 5.58,-0.3 7.82,-0.9 2.25,-0.6 3.92,-1.45 4.99,-2.54 2.3,-2.29 3.43,-6.45 3.43,-12.46 m -2.19,-38.78 c 0,-5.75 -1.09,-9.59 -3.3,-11.54 -2.19,-1.95 -6.51,-2.92 -12.94,-2.92 -3.5,0 -5.7,0.15 -6.59,0.44 -2.03,0.66 -3.05,2.31 -3.05,4.97 v 24.77 h 5.04 c 6.79,0 11.72,-0.89 14.8,-2.67 4.02,-2.41 6.04,-6.75 6.04,-13.05 m -1.77,18.8 c 4.68,1.13 8.7,2.99 12.06,5.57 5.14,4 7.71,9.12 7.71,15.35 0,7.1 -3,12.69 -9,16.76 -5.76,3.94 -13.58,5.9 -23.48,5.9 h -38 v -7.48 c 4.71,0 7.5,-0.15 8.36,-0.44 2.32,-0.8 3.48,-2.97 3.48,-6.5 v -55.21 c 0,-1.64 -0.09,-2.83 -0.27,-3.57 -0.18,-0.75 -0.52,-1.39 -1.02,-1.94 -1.57,-1.13 -5.09,-1.69 -10.56,-1.69 v -7.26 h 32.7 c 23.8,0 35.7,7.04 35.7,21.13 0,5.64 -2.34,10.34 -7.02,14.09 -2.78,2.22 -6.34,3.98 -10.66,5.29"
   id="path50" />
	<path
   class="st3"
   d="m 185.95,282.86 v -5.9 c -11.58,4.41 -17.37,9.24 -17.37,14.52 0,1.78 0.45,3.24 1.34,4.36 1.04,0.95 2.54,1.42 4.5,1.42 3.5,0 6.36,-1.56 8.58,-4.69 1.96,-2.76 2.95,-6 2.95,-9.71 m 0.85,15.17 c -1.36,2.08 -3.18,3.84 -5.47,5.29 -3.22,2.08 -7.17,3.11 -11.85,3.11 -4.22,0 -7.72,-1.2 -10.51,-3.6 -2.97,-2.55 -4.45,-5.93 -4.45,-10.15 0,-5.27 2.5,-9.7 7.5,-13.26 4.5,-3.2 12.54,-6.37 24.12,-9.5 v -4.48 c 0,-5.2 -0.76,-8.6 -2.3,-10.2 -1.43,-1.49 -4.22,-2.24 -8.36,-2.24 -2.15,0 -4.18,0.4 -6.11,1.2 -0.5,0.22 -0.77,0.38 -0.8,0.49 0.22,0.07 0.46,0.17 0.73,0.27 0.27,0.11 0.61,0.35 1.04,0.71 2.04,1.71 3.06,3.99 3.06,6.82 0,2.11 -0.77,4.02 -2.31,5.73 -1.71,1.57 -3.61,2.35 -5.68,2.35 -2.36,0 -4.45,-0.82 -6.28,-2.46 -1.53,-1.71 -2.3,-3.84 -2.3,-6.39 0,-5.09 2.4,-9.02 7.18,-11.78 3.93,-2.26 8.6,-3.39 13.99,-3.39 7.18,0 12.31,1.48 15.39,4.42 3.07,2.95 4.61,8.13 4.61,15.56 v 25.81 c 0,1.93 0.14,3.2 0.43,3.82 0.43,0.22 0.73,0.33 0.91,0.33 1.58,0 2.57,-1.53 3.07,-4.59 0.09,-0.6 0.16,-1.27 0.21,-2.01 l 5.67,-0.01 c -0.22,8.58 -3.78,13.86 -8.51,15.83 -1.1,0.47 -2.32,0.71 -3.65,0.71 -3.29,0 -5.7,-1.24 -7.23,-3.71 -1.04,-1.66 -1.74,-3.22 -2.1,-4.68"
   id="path52" />
	<path
   class="st3"
   d="m 261.55,254.61 c -1.58,0.13 -3.04,0.74 -4.17,1.83 -1.39,1.31 -2.62,3.47 -3.7,6.5 l -17.9,49.55 c -3.9,10.81 -10.27,16.21 -19.14,16.21 -3.61,0 -6.6,-0.98 -8.95,-2.95 -2.54,-2.15 -3.81,-5 -3.81,-8.57 0,-3.02 0.73,-5.44 2.2,-7.26 1.57,-2 3.79,-3 6.64,-3 2.54,0 4.5,0.78 5.9,2.34 1.54,1.75 2.31,3.77 2.31,6.06 0,2.43 -0.84,4.44 -2.52,6 -0.43,0.29 -0.75,0.46 -0.97,0.49 -0.22,0.04 -0.36,0.06 -0.43,0.06 l 0.96,0.11 c 6.08,0 10.47,-5.84 13.19,-17.52 l -15.92,-44.1 c -0.86,-2.36 -1.81,-3.93 -2.84,-4.69 -1.15,-0.84 -2.84,-1.26 -5.09,-1.26 l -0.65,0.17 h -2.79 v -6.93 h 27.82 v 6.93 h -3.27 c -1.25,0 -2.05,0.11 -2.41,0.33 l -0.11,0.54 v 0.6 l 0.26,0.76 10.86,31.65 8.26,-23.01 c 0.44,-1.24 0.73,-2.4 0.87,-3.49 l 0.38,-3.11 c 0,-1.27 -0.34,-2.33 -1.02,-3.16 -0.97,-0.72 -2.43,-1.09 -4.39,-1.09 h -1.98 v -6.93 h 22.39 v 6.94 z"
   id="path54" />
	<path
   class="st3"
   d="m 322.44,254.65 c -1.95,0.16 -3.38,0.65 -4.29,1.47 -1.31,1.16 -2.51,3.18 -3.6,6.06 l -18.34,44.21 h -5.08 l -17.06,-43.61 c -1.35,-3.37 -2.66,-5.58 -3.94,-6.63 -0.54,-0.43 -1.04,-0.73 -1.47,-0.91 -0.66,-0.25 -1.48,-0.43 -2.48,-0.53 v -7.05 h 25.22 v 6.94 h -3.83 c -1.13,0 -1.98,0.14 -2.57,0.43 -0.15,0.43 -0.22,0.74 -0.22,0.92 v 0.54 l 0.37,0.87 10.96,29.98 10.36,-23.02 c 0.25,-0.62 0.56,-1.73 0.92,-3.34 l 0.43,-3.06 c 0,-2.22 -2.06,-3.33 -6.17,-3.33 h -2.79 v -6.94 h 23.59 v 7 z"
   id="path56" />
	<path
   class="st3"
   d="m 357.94,304.58 h -28.19 v -7.48 h 3.33 c 1.96,0 3.46,-0.33 4.5,-0.99 0.64,-0.62 0.96,-1.82 0.96,-3.61 v -32.87 c 0,-1.9 -0.46,-2.91 -1.39,-3.6 -0.78,-0.54 -2.18,-1.44 -4.18,-1.44 h -5.89 v -6.94 c 0,0 9.44,-0.11 11.89,-0.22 4.81,-0.22 11.64,-1.36 11.64,-1.36 v 46.44 c 0,1.64 0.3,2.81 0.91,3.5 0.93,0.73 2.39,1.09 4.4,1.09 h 2.03 v 7.48 z"
   id="path58" />
	<path
   class="st3"
   d="m 351.53,227.44 c 0,2.52 -0.85,4.6 -2.54,6.23 -1.7,1.64 -3.73,2.45 -6.1,2.45 -2.52,0 -4.59,-0.81 -6.21,-2.42 -1.62,-1.62 -2.43,-3.7 -2.43,-6.26 0,-2.53 0.82,-4.62 2.46,-6.29 1.64,-1.67 3.7,-2.5 6.18,-2.5 2.44,0 4.49,0.84 6.15,2.53 1.66,1.69 2.49,3.78 2.49,6.26"
   id="path60" />
	<path
   class="st3"
   d="m 394.05,268.24 c 0,-4.84 -0.88,-8.5 -2.62,-11 -1.75,-2.49 -4.19,-3.74 -7.29,-3.74 -5.47,0 -9.2,3.57 -11.21,10.7 -0.65,2.29 -0.96,4.71 -0.96,7.26 h 13.94 c 4.21,0 6.73,-0.22 7.56,-0.65 0.38,-0.23 0.58,-1.08 0.58,-2.57 m 14.69,21.77 c -2.54,5.93 -5.77,10.24 -9.7,12.9 -3.93,2.68 -8.56,4.01 -13.88,4.01 -8.33,0 -14.89,-2.76 -19.67,-8.29 -4.61,-5.28 -6.92,-12.21 -6.92,-20.8 0,-8.51 2.14,-15.75 6.43,-21.72 4.76,-6.59 11.17,-9.88 19.25,-9.88 6.97,0 12.54,2.52 16.73,7.58 4.57,5.53 6.65,12.33 6.21,20.41 l -0.11,4.86 h -35.11 c 0,6.26 1.32,11.1 3.97,14.52 2.64,3.42 6.3,5.13 10.98,5.13 5.18,0 9.82,-2.92 13.9,-8.76 z"
   id="path62" />
	<path
   class="st3"
   d="m 651.9,268.24 c 0,-4.84 -0.88,-8.5 -2.63,-11 -1.75,-2.49 -4.18,-3.74 -7.29,-3.74 -5.47,0 -9.2,3.57 -11.2,10.7 -0.65,2.29 -0.96,4.71 -0.96,7.26 h 13.93 c 4.22,0 6.74,-0.22 7.56,-0.65 0.38,-0.23 0.59,-1.08 0.59,-2.57 m 14.69,21.77 c -2.54,5.93 -5.77,10.24 -9.71,12.9 -3.93,2.68 -8.55,4.01 -13.88,4.01 -8.33,0 -14.89,-2.76 -19.68,-8.29 -4.61,-5.28 -6.91,-12.21 -6.91,-20.8 0,-8.51 2.14,-15.75 6.43,-21.72 4.76,-6.59 11.17,-9.88 19.25,-9.88 6.97,0 12.54,2.52 16.72,7.58 4.57,5.53 6.65,12.33 6.22,20.41 l -0.11,4.86 h -35.11 c 0,6.26 1.32,11.1 3.96,14.52 2.64,3.42 6.3,5.13 10.99,5.13 5.18,0 9.82,-2.92 13.9,-8.76 z"
   id="path64" />
	<path
   class="st3"
   d="m 490.95,254.37 c -3,0.36 -5.22,1.18 -6.65,2.46 -1.29,1.12 -2.47,3.21 -3.54,6.27 l -15.38,43.28 h -6.03 l -10.48,-33.32 -12.04,33.32 h -5.48 l -17.9,-49.72 c 0,0 -0.42,-0.59 -1.13,-1.04 -0.71,-0.45 -1.83,-0.48 -1.83,-0.48 -0.32,-0.07 -1.46,-0.1 -3,-0.38 v -7.1 h 23.7 v 6.93 c -2.89,0 -3.59,0.14 -4.94,0.44 l -0.21,0.33 0.11,0.6 0.48,1.64 10.19,29.09 8.67,-23.34 -1.64,-5.65 c -0.32,-1.13 -0.93,-1.93 -1.82,-2.4 -0.9,-0.47 -2.29,-0.71 -4.19,-0.71 h -2.9 v -6.93 h 27.77 v 6.93 h -2.84 c -1.67,0 -2.8,0.18 -3.38,0.55 -0.21,0.14 -0.32,0.53 -0.32,1.15 l 0.21,1.64 c 0.04,0.18 0.11,0.45 0.22,0.82 0,0.29 0.07,0.58 0.21,0.87 l 8.69,27.2 8.16,-22.94 c 0.31,-0.91 0.56,-1.91 0.74,-3.01 l 0.42,-2.67 c 0,-1.05 -0.44,-1.93 -1.34,-2.62 -1.11,-0.66 -2.78,-0.99 -5.03,-0.99 h -2.11 v -6.93 h 24.62 v 6.71 z"
   id="path66" />
	<path
   class="st3"
   d="m 583.63,273.69 c -4.15,0 -5.52,0.6 -6.97,1.8 -1.11,0.91 -1.66,2.54 -1.66,4.91 v 26.64 h -5.68 c -1.32,-3.46 -2.18,-5.46 -2.58,-6.01 -0.42,-0.43 -0.86,-0.66 -1.28,-0.66 l -0.7,0.11 -0.75,0.22 c -7.01,4.36 -13.56,6.55 -19.67,6.55 -8.8,0 -16.59,-3.95 -23.38,-11.84 -7.25,-8.44 -10.88,-18.54 -10.88,-30.29 0,-6.44 0.89,-12.44 2.68,-18.01 3.65,-11.39 10.01,-19.52 19.09,-24.4 4.25,-2.29 8.75,-3.43 13.5,-3.43 2.58,0 5.05,0.36 7.43,1.09 2.37,0.73 5.17,2 8.39,3.82 0,0 1.84,0.87 3.16,1.2 0.97,0 2.22,-1.51 3.75,-4.53 l 0.97,-1.91 h 5.73 l 0.54,34.88 h -6.17 c -2.81,-9.75 -6.16,-16.72 -10.02,-20.9 -3.86,-4.18 -8.41,-6.28 -13.67,-6.28 -13.25,0 -19.88,12.23 -19.88,36.68 0,24.2 6.73,36.29 20.21,36.29 5.07,0 8.9,-1.44 11.49,-4.34 2.59,-2.89 3.89,-7.32 3.89,-13.29 0,-3.35 -0.59,-5.55 -1.77,-6.6 -1.17,-1.06 -3.8,-1.59 -7.88,-1.59 h -2.3 v -7.48 h 34.42 v 7.37 z"
   id="path68" />
	<path
   class="st3"
   d="m 613.45,304.58 h -28.47 v -7.48 h 3.32 c 2.25,0 3.75,-0.33 4.5,-0.98 0.64,-0.69 0.97,-1.9 0.97,-3.6 v -57.68 c 0,-2.8 -0.36,-4.59 -1.07,-5.35 -0.72,-0.77 -2.43,-1.15 -5.15,-1.15 h -3.22 v -7.48 c 1.93,0 5.63,-0.27 11.1,-0.82 l 4.5,-0.43 c 1.68,-0.15 3.65,-0.4 5.89,-0.76 v 73.68 c 0,1.81 0.41,3.06 1.24,3.71 0.71,0.58 2,0.87 3.86,0.87 h 2.52 v 7.47 z"
   id="path70" />
	<path
   class="st3"
   d="m 689.99,256.5 c 1.36,-2.37 2.98,-4.35 4.86,-5.95 3.13,-2.65 6.78,-3.99 10.93,-3.99 5.45,0 9.52,1.77 12.23,5.29 2.71,3.52 4.06,8.55 4.06,15.08 v 23.87 c 0,3.39 0.24,5.25 0.72,5.59 0.52,0.55 2.58,0.82 6.19,0.82 v 7.37 h -26.12 v -7.37 c 3.42,0 5.51,-0.4 6.25,-1.2 0.58,-0.44 0.88,-2.28 0.88,-5.52 v -23.28 c 0,-3.28 -0.26,-5.66 -0.78,-7.16 -0.88,-2.52 -2.65,-3.77 -5.3,-3.77 -4.97,0 -8.75,2.89 -11.37,8.67 -2.03,4.44 -3.04,9.44 -3.04,15.01 v 10.37 c 0,2.8 0.22,4.55 0.66,5.24 0.59,0.98 2.15,1.47 4.69,1.47 l 2.26,0.16 v 7.37 H 669.4 v -7.37 l 2.38,-0.16 c 1.65,0 2.81,-0.07 3.47,-0.22 1.25,-0.15 2.03,-0.99 2.32,-2.52 0.11,-0.47 0.17,-1.76 0.17,-3.87 v -29.25 c 0,-2.73 -0.3,-4.33 -0.88,-4.8 -0.7,-0.48 -2.1,-0.71 -4.2,-0.71 h -3.81 v -7.28 l 7.79,-0.76 13.36,-1.08 v 9.95 z"
   id="path72" />
</g>
</svg>
